<?xml version="1.0" standalone="no"?>
<!DOCTYPE svg PUBLIC "-//W3C//DTD SVG 20010904//EN"
 "http://www.w3.org/TR/2001/REC-SVG-20010904/DTD/svg10.dtd">
<svg version="1.0" xmlns="http://www.w3.org/2000/svg"
 width="720.000000pt" height="720.000000pt" viewBox="0 0 720.000000 720.000000"
 preserveAspectRatio="xMidYMid meet">
<metadata>
Created by potrace 1.14, written by Peter Selinger 2001-2017
</metadata>
<g transform="translate(0.000000,720.000000) scale(0.100000,-0.100000)"
fill="#000000" stroke="none">
<path d="M4509 6580 c-1 -59 -12 -109 -40 -194 -86 -257 -317 -408 -671 -440
-34 -3 -37 -2 -33 18 43 174 13 344 -83 460 -40 49 -148 127 -205 149 -16 6
-15 1 7 -39 59 -105 89 -257 73 -364 -7 -46 -36 -131 -51 -150 -7 -8 -18 -28
-26 -44 -28 -54 -164 -181 -268 -250 -56 -37 -107 -64 -112 -61 -6 3 -10 15
-10 25 0 26 -35 122 -73 200 -68 138 -192 247 -329 291 -101 32 -97 34 -43
-23 28 -29 52 -55 55 -58 50 -50 119 -171 145 -254 20 -65 27 -200 13 -256 -5
-19 -11 -44 -13 -55 -10 -42 -96 -215 -107 -215 -4 0 -8 -5 -8 -11 0 -6 -9
-22 -19 -35 l-19 -24 -31 62 c-51 103 -66 123 -151 208 -88 88 -231 160 -344
174 -19 2 -40 7 -46 11 -5 3 -10 2 -10 -2 0 -5 12 -16 28 -25 70 -42 195 -165
251 -247 35 -50 93 -165 92 -181 0 -3 5 -23 11 -45 12 -44 15 -205 5 -275 -3
-25 -14 -70 -23 -100 -10 -30 -17 -58 -16 -62 4 -16 -19 -7 -25 10 -23 64
-131 186 -212 239 -48 32 -141 84 -141 78 0 -1 13 -28 29 -61 80 -166 137
-325 167 -466 18 -84 35 -192 39 -243 8 -101 11 -119 35 -189 18 -54 21 -82
17 -132 -3 -35 -8 -68 -11 -73 -3 -5 -13 -42 -22 -82 -8 -41 -17 -81 -19 -89
-2 -8 -4 -19 -4 -24 -2 -20 -51 38 -82 97 -27 51 -33 58 -39 41 -13 -33 -21
-114 -26 -234 -14 -420 -14 -400 6 -461 33 -97 90 -167 173 -210 50 -26 63
-20 61 25 -2 30 1 36 15 32 108 -33 186 -28 293 18 44 19 54 31 27 33 -41 3
-126 33 -164 58 -38 26 -112 111 -103 120 2 2 16 -2 32 -10 44 -23 107 -37
167 -37 73 0 141 11 133 23 -3 5 -10 7 -15 3 -14 -8 -109 40 -144 73 -41 38
-89 102 -82 109 3 4 23 -4 44 -17 30 -19 52 -24 103 -24 36 0 77 3 93 8 28 8
38 27 13 27 -36 0 -136 149 -136 203 0 17 30 24 44 10 22 -23 118 -33 194 -22
18 3 15 7 -20 25 -43 22 -66 48 -94 108 -17 38 -20 53 -11 66 8 13 16 16 32
10 33 -13 126 -3 168 18 l38 18 -55 13 c-30 7 -65 20 -77 30 l-22 18 29 27
c72 69 172 86 240 41 28 -18 30 -28 9 -45 -8 -7 -15 -18 -15 -25 0 -8 -4 -15
-9 -17 -12 -4 -104 -178 -131 -248 -12 -30 -34 -102 -49 -160 -24 -89 -28
-121 -25 -210 1 -58 7 -131 12 -163 9 -56 8 -222 -1 -262 -22 -93 -79 -203
-139 -269 -54 -59 -18 -37 49 31 69 69 99 108 119 153 6 14 16 36 23 50 11 24
19 60 20 90 1 8 23 -22 50 -68 41 -68 91 -137 143 -197 5 -5 -17 42 -49 105
-89 174 -123 300 -123 460 0 120 20 214 66 310 39 83 110 201 161 269 33 43
33 43 42 19 5 -14 12 -38 14 -54 3 -16 11 -54 17 -84 l11 -55 -33 -28 c-18
-15 -52 -33 -76 -39 -30 -7 -40 -13 -30 -19 18 -12 91 -11 122 1 39 15 40 -5
1 -34 -40 -31 -64 -39 -117 -40 -21 -1 -38 -3 -38 -5 0 -9 57 -53 80 -63 14
-5 47 -10 73 -9 56 0 59 -15 6 -41 -60 -29 -83 -36 -136 -40 -18 -1 -33 -5
-33 -9 0 -16 94 -32 158 -26 73 7 72 4 -12 -39 -85 -44 -147 -63 -223 -67 -29
-1 -29 -5 -1 -29 57 -49 143 -65 239 -44 35 7 37 6 37 -19 0 -35 4 -38 66 -43
48 -4 59 -1 98 26 40 27 138 130 141 148 1 4 -9 9 -23 11 -73 11 -95 69 -76
208 4 28 9 58 12 67 3 9 6 25 8 35 2 10 9 38 16 63 7 25 14 53 16 62 9 40 14
59 55 198 54 188 55 230 6 297 -80 110 -96 205 -61 378 10 48 59 136 101 181
50 53 141 113 205 135 63 21 189 19 270 -5 58 -17 140 -65 175 -102 123 -132
152 -428 71 -709 -42 -147 -134 -333 -229 -461 -45 -62 -147 -167 -214 -221
-22 -18 -33 -31 -25 -28 8 2 40 6 71 9 68 6 164 38 239 79 55 30 167 106 192
130 7 7 32 30 56 52 l44 39 -6 -100 c-3 -54 -8 -110 -11 -124 -3 -14 -8 -36
-9 -50 -7 -53 -18 -107 -32 -160 -8 -30 -17 -62 -19 -70 -2 -8 -4 -15 -5 -15
-1 0 -3 -7 -5 -15 -3 -14 -35 -101 -54 -145 -17 -41 -74 -150 -85 -165 -7 -8
-18 -27 -26 -42 -7 -15 -20 -36 -29 -45 -9 -10 -29 -36 -45 -58 -51 -71 -219
-228 -306 -287 -157 -105 -387 -204 -550 -237 -92 -19 -103 -21 -150 -26 -25
-3 -61 -8 -80 -11 -38 -6 -254 -6 -310 0 -185 19 -337 66 -540 166 -128 63
-321 184 -350 220 -3 3 -18 16 -35 28 -65 50 -203 192 -277 287 -43 55 -82
105 -87 111 -26 32 -134 222 -174 304 -111 229 -208 532 -251 785 -3 17 -8 46
-11 65 -4 19 -9 51 -11 70 -3 19 -7 49 -10 65 -2 17 -7 50 -9 75 -3 25 -7 65
-10 90 -3 25 -7 64 -8 87 0 24 -4 39 -8 35 -13 -14 -83 -219 -95 -277 -1 -5
-9 -46 -19 -90 -25 -118 -30 -191 -29 -385 1 -159 4 -206 19 -280 2 -14 7 -38
10 -55 18 -109 74 -303 111 -382 7 -17 14 -34 14 -38 0 -14 113 -241 128 -259
9 -10 15 -19 12 -20 -12 -6 166 -263 268 -386 62 -75 274 -288 325 -327 23
-17 51 -40 62 -50 35 -31 97 -77 160 -117 33 -22 72 -48 87 -57 73 -50 358
-171 358 -153 0 2 8 0 19 -5 10 -6 33 -13 52 -16 19 -3 54 -11 79 -16 25 -6
59 -12 75 -15 17 -2 48 -6 70 -10 69 -12 94 -13 325 -18 197 -3 331 2 435 18
16 3 53 8 80 11 28 4 57 8 65 10 8 3 33 7 55 11 70 10 296 71 400 107 121 42
199 74 325 135 134 65 369 210 378 234 2 4 10 8 17 8 7 0 15 3 17 8 2 4 26 25
53 47 438 347 751 864 910 1503 16 61 34 112 40 112 21 0 123 -99 161 -157 21
-32 46 -80 54 -107 l16 -49 23 75 c12 41 23 96 24 121 1 26 5 47 9 47 13 0 1
295 -16 365 -49 206 -133 393 -263 587 -40 59 -68 110 -64 112 4 3 21 7 37 10
16 3 43 9 59 13 17 3 41 7 55 8 14 2 27 4 30 5 3 1 9 2 14 1 4 -1 41 -4 80 -6
39 -2 85 -9 101 -15 71 -28 84 -30 80 -8 -9 46 -60 180 -77 203 -101 133 -159
184 -273 239 -62 30 -149 60 -210 72 -11 2 -33 7 -50 10 -16 4 -41 6 -54 5
-24 -1 -24 -1 -5 21 10 12 31 34 46 49 46 48 115 151 156 234 42 83 99 242 90
251 -3 3 -26 -9 -51 -26 -25 -16 -76 -42 -114 -57 -127 -48 -309 -32 -430 39
l-33 20 22 41 c11 23 20 42 19 42 -1 0 2 12 8 27 23 60 38 181 35 275 -4 144
-14 178 -36 127 -44 -99 -154 -227 -249 -287 -114 -73 -277 -106 -414 -83 -16
2 -49 7 -72 11 -24 4 -43 9 -43 11 0 3 11 25 25 49 13 24 37 81 53 127 25 71
29 96 27 173 -1 50 -5 104 -9 120 -9 41 -71 163 -101 200 l-25 30 -1 -35z
m-1845 -1953 c1 -7 7 -28 14 -47 23 -69 30 -161 16 -225 -16 -75 -34 -111 -83
-166 -33 -38 -41 -42 -54 -30 -9 7 -16 16 -15 19 1 4 -4 19 -10 34 -6 15 -10
35 -8 45 2 10 7 37 11 61 4 23 12 42 18 42 5 0 8 2 5 6 -3 3 7 31 22 62 40 83
60 146 62 198 1 34 4 41 11 29 5 -9 10 -22 11 -28z"/>
</g>
</svg>
